<svg width="283" height="77" viewBox="0 0 283 77" fill="none" xmlns="http://www.w3.org/2000/svg">
<path d="M0.945 70.6V63.61C1.645 63.61 2.23 63.435 2.7 63.085C3.17 62.735 3.545 62.25 3.825 61.63C4.115 61.01 4.34 60.29 4.5 59.47C4.66 58.64 4.785 57.76 4.875 56.83C4.985 55.6 5.08 54.395 5.16 53.215C5.24 52.025 5.315 50.795 5.385 49.525C5.465 48.245 5.555 46.86 5.655 45.37L19.74 45.4V63.61H21.36V70.6H17.76V67H4.56V70.6H0.945ZM6.57 63.61H16.125V48.79L8.955 48.76C8.885 49.81 8.825 50.79 8.775 51.7C8.735 52.6 8.68 53.515 8.61 54.445C8.55 55.375 8.465 56.39 8.355 57.49C8.255 58.57 8.145 59.47 8.025 60.19C7.915 60.91 7.75 61.535 7.53 62.065C7.31 62.585 6.99 63.1 6.57 63.61ZM33.7936 67.45C31.6336 67.45 29.7836 66.98 28.2436 66.04C26.7036 65.09 25.5186 63.77 24.6886 62.08C23.8686 60.39 23.4586 58.43 23.4586 56.2C23.4586 53.97 23.8686 52.01 24.6886 50.32C25.5186 48.63 26.7036 47.315 28.2436 46.375C29.7836 45.425 31.6336 44.95 33.7936 44.95C35.9536 44.95 37.8036 45.425 39.3436 46.375C40.8936 47.315 42.0786 48.63 42.8986 50.32C43.7286 52.01 44.1436 53.97 44.1436 56.2C44.1436 58.43 43.7286 60.39 42.8986 62.08C42.0786 63.77 40.8936 65.09 39.3436 66.04C37.8036 66.98 35.9536 67.45 33.7936 67.45ZM33.7936 64.045C35.2436 64.055 36.4486 63.735 37.4086 63.085C38.3786 62.435 39.1036 61.52 39.5836 60.34C40.0736 59.16 40.3186 57.78 40.3186 56.2C40.3186 54.62 40.0736 53.25 39.5836 52.09C39.1036 50.92 38.3786 50.01 37.4086 49.36C36.4486 48.71 35.2436 48.375 33.7936 48.355C32.3436 48.345 31.1386 48.665 30.1786 49.315C29.2186 49.965 28.4936 50.88 28.0036 52.06C27.5236 53.24 27.2836 54.62 27.2836 56.2C27.2836 57.78 27.5236 59.155 28.0036 60.325C28.4836 61.485 29.2036 62.39 30.1636 63.04C31.1336 63.69 32.3436 64.025 33.7936 64.045ZM57.5371 66.91V57.46L85.2571 32.755C87.4171 30.835 88.9171 29.02 89.7571 27.31C90.5971 25.6 91.0171 23.95 91.0171 22.36C91.0171 20.2 90.5521 18.28 89.6221 16.6C88.6921 14.89 87.4021 13.54 85.7521 12.55C84.1321 11.56 82.2571 11.065 80.1271 11.065C77.8771 11.065 75.8821 11.59 74.1421 12.64C72.4321 13.66 71.0971 15.025 70.1371 16.735C69.1771 18.445 68.7271 20.29 68.7871 22.27H57.6271C57.6271 17.95 58.5871 14.185 60.5071 10.975C62.4571 7.765 65.1271 5.275 68.5171 3.505C71.9371 1.735 75.8821 0.849999 80.3521 0.849999C84.4921 0.849999 88.2121 1.78 91.5121 3.63999C94.8121 5.46999 97.4071 8.02 99.2971 11.29C101.187 14.53 102.132 18.265 102.132 22.495C102.132 25.585 101.712 28.18 100.872 30.28C100.032 32.38 98.7721 34.315 97.0921 36.085C95.4421 37.855 93.3871 39.82 90.9271 41.98L71.2621 59.395L70.2721 56.695H102.132V66.91H57.5371ZM133.56 68.35C128.97 68.35 124.92 67.375 121.41 65.425C117.9 63.445 115.155 60.7 113.175 57.19C111.225 53.68 110.25 49.63 110.25 45.04V24.16C110.25 19.57 111.225 15.52 113.175 12.01C115.155 8.5 117.9 5.77 121.41 3.82C124.92 1.84 128.97 0.849999 133.56 0.849999C138.15 0.849999 142.185 1.84 145.665 3.82C149.175 5.77 151.92 8.5 153.9 12.01C155.88 15.52 156.87 19.57 156.87 24.16V45.04C156.87 49.63 155.88 53.68 153.9 57.19C151.92 60.7 149.175 63.445 145.665 65.425C142.185 67.375 138.15 68.35 133.56 68.35ZM133.56 58.045C135.84 58.045 137.91 57.505 139.77 56.425C141.63 55.315 143.1 53.845 144.18 52.015C145.26 50.155 145.8 48.085 145.8 45.805V23.35C145.8 21.04 145.26 18.97 144.18 17.14C143.1 15.28 141.63 13.81 139.77 12.73C137.91 11.62 135.84 11.065 133.56 11.065C131.28 11.065 129.21 11.62 127.35 12.73C125.49 13.81 124.02 15.28 122.94 17.14C121.86 18.97 121.32 21.04 121.32 23.35V45.805C121.32 48.085 121.86 50.155 122.94 52.015C124.02 53.845 125.49 55.315 127.35 56.425C129.21 57.505 131.28 58.045 133.56 58.045ZM170.689 67L165.889 62.2L204.319 23.8L209.119 28.63L170.689 67ZM200.119 67.9C198.139 67.9 196.329 67.42 194.689 66.46C193.069 65.48 191.769 64.18 190.789 62.56C189.809 60.92 189.319 59.1 189.319 57.1C189.319 55.14 189.819 53.34 190.819 51.7C191.819 50.06 193.139 48.75 194.779 47.77C196.419 46.79 198.199 46.3 200.119 46.3C202.099 46.3 203.909 46.79 205.549 47.77C207.189 48.73 208.489 50.03 209.449 51.67C210.429 53.29 210.919 55.1 210.919 57.1C210.919 59.1 210.429 60.92 209.449 62.56C208.489 64.18 207.189 65.48 205.549 66.46C203.909 67.42 202.099 67.9 200.119 67.9ZM200.119 61.72C200.939 61.72 201.699 61.51 202.399 61.09C203.119 60.67 203.689 60.11 204.109 59.41C204.529 58.71 204.739 57.94 204.739 57.1C204.739 56.26 204.529 55.49 204.109 54.79C203.689 54.09 203.119 53.53 202.399 53.11C201.699 52.69 200.939 52.48 200.119 52.48C199.279 52.48 198.509 52.69 197.809 53.11C197.109 53.53 196.539 54.09 196.099 54.79C195.679 55.49 195.469 56.26 195.469 57.1C195.469 57.94 195.679 58.71 196.099 59.41C196.539 60.11 197.109 60.67 197.809 61.09C198.509 61.51 199.279 61.72 200.119 61.72ZM174.889 44.5C172.909 44.5 171.099 44.02 169.459 43.06C167.819 42.08 166.509 40.78 165.529 39.16C164.569 37.52 164.089 35.7 164.089 33.7C164.089 31.74 164.589 29.94 165.589 28.3C166.589 26.66 167.909 25.35 169.549 24.37C171.189 23.39 172.969 22.9 174.889 22.9C176.869 22.9 178.669 23.39 180.289 24.37C181.929 25.33 183.239 26.63 184.219 28.27C185.199 29.89 185.689 31.7 185.689 33.7C185.689 35.7 185.199 37.52 184.219 39.16C183.239 40.78 181.929 42.08 180.289 43.06C178.669 44.02 176.869 44.5 174.889 44.5ZM174.889 38.32C175.729 38.32 176.499 38.11 177.199 37.69C177.899 37.27 178.459 36.71 178.879 36.01C179.299 35.31 179.509 34.54 179.509 33.7C179.509 32.86 179.299 32.09 178.879 31.39C178.459 30.69 177.899 30.13 177.199 29.71C176.499 29.29 175.729 29.08 174.889 29.08C174.049 29.08 173.279 29.29 172.579 29.71C171.879 30.13 171.319 30.69 170.899 31.39C170.479 32.09 170.269 32.86 170.269 33.7C170.269 34.54 170.479 35.31 170.899 36.01C171.319 36.71 171.879 37.27 172.579 37.69C173.279 38.11 174.049 38.32 174.889 38.32Z" fill="#79F4F5"/>
</svg>
