<svg width="230" height="77" viewBox="0 0 230 77" fill="none" xmlns="http://www.w3.org/2000/svg">
<path d="M0.945 70.6V63.61C1.645 63.61 2.23 63.435 2.7 63.085C3.17 62.735 3.545 62.25 3.825 61.63C4.115 61.01 4.34 60.29 4.5 59.47C4.66 58.64 4.785 57.76 4.875 56.83C4.985 55.6 5.08 54.395 5.16 53.215C5.24 52.025 5.315 50.795 5.385 49.525C5.465 48.245 5.555 46.86 5.655 45.37L19.74 45.4V63.61H21.36V70.6H17.76V67H4.56V70.6H0.945ZM6.57 63.61H16.125V48.79L8.955 48.76C8.885 49.81 8.825 50.79 8.775 51.7C8.735 52.6 8.68 53.515 8.61 54.445C8.55 55.375 8.465 56.39 8.355 57.49C8.255 58.57 8.145 59.47 8.025 60.19C7.915 60.91 7.75 61.535 7.53 62.065C7.31 62.585 6.99 63.1 6.57 63.61ZM33.7936 67.45C31.6336 67.45 29.7836 66.98 28.2436 66.04C26.7036 65.09 25.5186 63.77 24.6886 62.08C23.8686 60.39 23.4586 58.43 23.4586 56.2C23.4586 53.97 23.8686 52.01 24.6886 50.32C25.5186 48.63 26.7036 47.315 28.2436 46.375C29.7836 45.425 31.6336 44.95 33.7936 44.95C35.9536 44.95 37.8036 45.425 39.3436 46.375C40.8936 47.315 42.0786 48.63 42.8986 50.32C43.7286 52.01 44.1436 53.97 44.1436 56.2C44.1436 58.43 43.7286 60.39 42.8986 62.08C42.0786 63.77 40.8936 65.09 39.3436 66.04C37.8036 66.98 35.9536 67.45 33.7936 67.45ZM33.7936 64.045C35.2436 64.055 36.4486 63.735 37.4086 63.085C38.3786 62.435 39.1036 61.52 39.5836 60.34C40.0736 59.16 40.3186 57.78 40.3186 56.2C40.3186 54.62 40.0736 53.25 39.5836 52.09C39.1036 50.92 38.3786 50.01 37.4086 49.36C36.4486 48.71 35.2436 48.375 33.7936 48.355C32.3436 48.345 31.1386 48.665 30.1786 49.315C29.2186 49.965 28.4936 50.88 28.0036 52.06C27.5236 53.24 27.2836 54.62 27.2836 56.2C27.2836 57.78 27.5236 59.155 28.0036 60.325C28.4836 61.485 29.2036 62.39 30.1636 63.04C31.1336 63.69 32.3436 64.025 33.7936 64.045ZM76.5502 68.35C73.2502 68.35 70.1752 67.675 67.3252 66.325C64.4752 64.945 62.0152 63.055 59.9452 60.655C57.9052 58.255 56.4352 55.465 55.5352 52.285L65.9752 49.495C66.3952 51.235 67.1602 52.735 68.2702 53.995C69.4102 55.255 70.7302 56.23 72.2302 56.92C73.7602 57.61 75.3352 57.955 76.9552 57.955C79.0552 57.955 80.9752 57.445 82.7152 56.425C84.4552 55.405 85.8352 54.04 86.8552 52.33C87.8752 50.59 88.3852 48.67 88.3852 46.57C88.3852 44.47 87.8602 42.565 86.8102 40.855C85.7902 39.115 84.4102 37.75 82.6702 36.76C80.9302 35.74 79.0252 35.23 76.9552 35.23C74.4652 35.23 72.3952 35.68 70.7452 36.58C69.1252 37.48 67.8802 38.44 67.0102 39.46L57.7402 36.49L59.7202 2.2H94.9102V12.37H65.5252L69.5752 8.545L68.1352 32.395L66.1552 29.965C67.8352 28.435 69.7852 27.295 72.0052 26.545C74.2252 25.795 76.3702 25.42 78.4402 25.42C82.4902 25.42 86.0752 26.35 89.1952 28.21C92.3452 30.04 94.8052 32.545 96.5752 35.725C98.3752 38.905 99.2752 42.52 99.2752 46.57C99.2752 50.62 98.2252 54.295 96.1252 57.595C94.0252 60.865 91.2502 63.475 87.8002 65.425C84.3802 67.375 80.6302 68.35 76.5502 68.35ZM113.97 67L109.17 62.2L147.6 23.8L152.4 28.63L113.97 67ZM143.4 67.9C141.42 67.9 139.61 67.42 137.97 66.46C136.35 65.48 135.05 64.18 134.07 62.56C133.09 60.92 132.6 59.1 132.6 57.1C132.6 55.14 133.1 53.34 134.1 51.7C135.1 50.06 136.42 48.75 138.06 47.77C139.7 46.79 141.48 46.3 143.4 46.3C145.38 46.3 147.19 46.79 148.83 47.77C150.47 48.73 151.77 50.03 152.73 51.67C153.71 53.29 154.2 55.1 154.2 57.1C154.2 59.1 153.71 60.92 152.73 62.56C151.77 64.18 150.47 65.48 148.83 66.46C147.19 67.42 145.38 67.9 143.4 67.9ZM143.4 61.72C144.22 61.72 144.98 61.51 145.68 61.09C146.4 60.67 146.97 60.11 147.39 59.41C147.81 58.71 148.02 57.94 148.02 57.1C148.02 56.26 147.81 55.49 147.39 54.79C146.97 54.09 146.4 53.53 145.68 53.11C144.98 52.69 144.22 52.48 143.4 52.48C142.56 52.48 141.79 52.69 141.09 53.11C140.39 53.53 139.82 54.09 139.38 54.79C138.96 55.49 138.75 56.26 138.75 57.1C138.75 57.94 138.96 58.71 139.38 59.41C139.82 60.11 140.39 60.67 141.09 61.09C141.79 61.51 142.56 61.72 143.4 61.72ZM118.17 44.5C116.19 44.5 114.38 44.02 112.74 43.06C111.1 42.08 109.79 40.78 108.81 39.16C107.85 37.52 107.37 35.7 107.37 33.7C107.37 31.74 107.87 29.94 108.87 28.3C109.87 26.66 111.19 25.35 112.83 24.37C114.47 23.39 116.25 22.9 118.17 22.9C120.15 22.9 121.95 23.39 123.57 24.37C125.21 25.33 126.52 26.63 127.5 28.27C128.48 29.89 128.97 31.7 128.97 33.7C128.97 35.7 128.48 37.52 127.5 39.16C126.52 40.78 125.21 42.08 123.57 43.06C121.95 44.02 120.15 44.5 118.17 44.5ZM118.17 38.32C119.01 38.32 119.78 38.11 120.48 37.69C121.18 37.27 121.74 36.71 122.16 36.01C122.58 35.31 122.79 34.54 122.79 33.7C122.79 32.86 122.58 32.09 122.16 31.39C121.74 30.69 121.18 30.13 120.48 29.71C119.78 29.29 119.01 29.08 118.17 29.08C117.33 29.08 116.56 29.29 115.86 29.71C115.16 30.13 114.6 30.69 114.18 31.39C113.76 32.09 113.55 32.86 113.55 33.7C113.55 34.54 113.76 35.31 114.18 36.01C114.6 36.71 115.16 37.27 115.86 37.69C116.56 38.11 117.33 38.32 118.17 38.32Z" fill="#79F4F5"/>
</svg>
