<svg width="158" height="154" viewBox="0 0 158 154" fill="none" xmlns="http://www.w3.org/2000/svg">
<g filter="url(#filter0_ddi)">
<rect x="28.0004" y="29.9995" width="90" height="90" rx="20" fill="#E5F8FA"/>
<rect x="28.2504" y="30.2495" width="89.5" height="89.5" rx="19.75" stroke="url(#paint0_linear)" stroke-width="0.5"/>
</g>
<path d="M90.4991 63.9078C90.4991 61.0643 88.1872 58.7524 85.3438 58.7524H58.1553C55.3119 58.7496 53 61.0643 53 63.9078V70.0024H90.4991V63.9078Z" fill="#8CE1EB"/>
<path d="M62.374 64.3746C61.339 64.3746 60.4981 63.5336 60.4981 62.4986V56.8736C60.5009 55.8386 61.339 55.0005 62.374 55.0005C63.409 55.0005 64.25 55.8386 64.25 56.8764V62.5014C64.25 63.5364 63.4119 64.3746 62.374 64.3746Z" fill="#8CE1EB"/>
<path d="M81.125 64.3746C80.09 64.3746 79.2491 63.5336 79.2491 62.4986V56.8736C79.2491 55.8386 80.09 55.0005 81.125 55.0005C82.16 55.0005 83.001 55.8414 83.001 56.8764V62.5014C83.001 63.5364 82.1628 64.3746 81.125 64.3746Z" fill="#8CE1EB"/>
<path d="M67.9991 90.6264H58.625C55.5228 90.6264 53 88.1036 53 85.0014V66.2504C53 65.2154 53.8381 64.3745 54.8759 64.3745C55.9138 64.3745 56.7491 65.2154 56.7491 66.2504V85.0014C56.7491 86.0364 57.59 86.8773 58.625 86.8773H67.9991C69.0369 86.8745 69.875 87.7155 69.875 88.7505C69.875 89.7855 69.0369 90.6264 67.9991 90.6264Z" fill="#8CE1EB"/>
<path d="M88.6259 71.8755C87.5881 71.8755 86.75 71.0345 86.75 69.9995V66.2504C86.75 65.2154 87.5881 64.3745 88.6259 64.3745C89.6609 64.3745 90.5019 65.2154 90.5019 66.2504V69.9995C90.4991 71.0345 89.6609 71.8755 88.6259 71.8755Z" fill="#8CE1EB"/>
<path d="M85.8135 75.6245C79.0944 75.6245 73.6269 81.092 73.6269 87.8111C73.6269 94.5301 79.0916 100 85.8135 100C92.5353 100 98 94.533 98 87.8139C98 81.0948 92.5325 75.6245 85.8135 75.6245ZM91.4497 85.7608L85.355 92.792C85.0147 93.1858 84.5253 93.4192 84.005 93.4389C83.9825 93.4389 83.96 93.4389 83.9375 93.4389C83.4425 93.4389 82.9644 93.242 82.6128 92.8905L79.3306 89.6083C78.5994 88.877 78.5994 87.6901 79.3306 86.9561C80.0619 86.222 81.2488 86.2248 81.9828 86.9561L83.8391 88.8123L88.6147 83.3026C89.2953 82.5179 90.4766 82.4364 91.2585 83.1142C92.0432 83.792 92.1247 84.9789 91.4497 85.7608Z" fill="#4FD2D4"/>
<defs>
<filter id="filter0_ddi" x="0.000366211" y="-0.000488281" width="158" height="154" filterUnits="userSpaceOnUse" color-interpolation-filters="sRGB">
<feFlood flood-opacity="0" result="BackgroundImageFix"/>
<feColorMatrix in="SourceAlpha" type="matrix" values="0 0 0 0 0 0 0 0 0 0 0 0 0 0 0 0 0 0 127 0"/>
<feOffset dx="8" dy="2"/>
<feGaussianBlur stdDeviation="16"/>
<feColorMatrix type="matrix" values="0 0 0 0 0.0705882 0 0 0 0 0.239216 0 0 0 0 0.396078 0 0 0 0.15 0"/>
<feBlend mode="normal" in2="BackgroundImageFix" result="effect1_dropShadow"/>
<feColorMatrix in="SourceAlpha" type="matrix" values="0 0 0 0 0 0 0 0 0 0 0 0 0 0 0 0 0 0 127 0"/>
<feOffset dx="-8" dy="-8"/>
<feGaussianBlur stdDeviation="10"/>
<feColorMatrix type="matrix" values="0 0 0 0 1 0 0 0 0 1 0 0 0 0 1 0 0 0 0.6 0"/>
<feBlend mode="normal" in2="effect1_dropShadow" result="effect2_dropShadow"/>
<feBlend mode="normal" in="SourceGraphic" in2="effect2_dropShadow" result="shape"/>
<feColorMatrix in="SourceAlpha" type="matrix" values="0 0 0 0 0 0 0 0 0 0 0 0 0 0 0 0 0 0 127 0" result="hardAlpha"/>
<feOffset dx="-4" dy="-3"/>
<feGaussianBlur stdDeviation="20"/>
<feComposite in2="hardAlpha" operator="arithmetic" k2="-1" k3="1"/>
<feColorMatrix type="matrix" values="0 0 0 0 1 0 0 0 0 1 0 0 0 0 1 0 0 0 0.09 0"/>
<feBlend mode="normal" in2="shape" result="effect3_innerShadow"/>
</filter>
<linearGradient id="paint0_linear" x1="-16.9996" y1="74.9995" x2="73.0004" y2="165" gradientUnits="userSpaceOnUse">
<stop stop-color="white"/>
<stop offset="0.616591" stop-color="white"/>
<stop offset="1" stop-color="#CBD7E5"/>
</linearGradient>
</defs>
</svg>
