<svg width="158" height="154" viewBox="0 0 158 154" fill="none" xmlns="http://www.w3.org/2000/svg">
<g filter="url(#filter0_ddi)">
<rect x="28" y="30" width="90" height="90" rx="20" fill="#E3F8FA"/>
<rect x="28.25" y="30.25" width="89.5" height="89.5" rx="19.75" stroke="#F4FAFF" stroke-width="0.5"/>
</g>
<path d="M91.6665 76.9313C89.6218 78.6244 87.4871 79.8591 85.7715 80.5903C85.1218 80.866 84.4468 81.001 83.7521 81.001C83.0574 81.001 82.3824 80.8631 81.744 80.5931C77.8009 78.9141 71.6443 74.6391 69.5124 68.0719C61.764 69.0535 54.6962 73.801 50.2046 81.2091C49.9318 81.6563 49.9318 82.2188 50.2046 82.666C55.2699 91.0163 63.6034 96 72.5021 96C81.4009 96 89.7343 91.0163 94.7968 82.666C95.0696 82.2188 95.0696 81.6563 94.7968 81.2091C93.8603 79.6622 92.8112 78.2363 91.6665 76.9313ZM72.5021 87.5625C69.3999 87.5625 66.8771 85.0397 66.8771 81.9375C66.8771 78.8353 69.3999 76.3125 72.5021 76.3125C75.6043 76.3125 78.1271 78.8353 78.1271 81.9375C78.1271 85.0397 75.6043 87.5625 72.5021 87.5625Z" fill="#4FD2D5"/>
<path d="M94.0487 54.4228L84.2049 51.0759C83.9096 50.9747 83.5946 50.9747 83.2993 51.0759L73.4555 54.4228C72.8846 54.6169 72.5021 55.1512 72.5021 55.7531V63.2878C72.5021 72.4847 82.7649 76.9509 83.2009 77.1394C83.3752 77.2125 83.5637 77.2519 83.7521 77.2519C83.9405 77.2519 84.1262 77.2153 84.3034 77.1394C84.7393 76.9538 95.0021 72.4847 95.0021 63.2878V55.7531C95.0021 55.1512 94.6196 54.6169 94.0487 54.4228ZM90.0324 60.7509L84.4074 68.2519C84.1627 68.5781 83.7887 68.7806 83.3809 68.8116C83.3471 68.8144 83.3134 68.8144 83.2824 68.8144C82.9112 68.8144 82.554 68.6681 82.2868 68.4037L78.5377 64.6547C77.9893 64.1062 77.9893 63.2147 78.5377 62.6662C79.0862 62.1178 79.9777 62.1178 80.5262 62.6662L83.1305 65.2706L87.7824 59.0662C88.2493 58.4475 89.1296 58.3209 89.7512 58.785C90.3727 59.2462 90.4993 60.1294 90.0324 60.7509Z" fill="#8CE1EB"/>
<defs>
<filter id="filter0_ddi" x="0" y="0" width="158" height="154" filterUnits="userSpaceOnUse" color-interpolation-filters="sRGB">
<feFlood flood-opacity="0" result="BackgroundImageFix"/>
<feColorMatrix in="SourceAlpha" type="matrix" values="0 0 0 0 0 0 0 0 0 0 0 0 0 0 0 0 0 0 127 0"/>
<feOffset dx="8" dy="2"/>
<feGaussianBlur stdDeviation="16"/>
<feColorMatrix type="matrix" values="0 0 0 0 0.0705882 0 0 0 0 0.239216 0 0 0 0 0.396078 0 0 0 0.15 0"/>
<feBlend mode="normal" in2="BackgroundImageFix" result="effect1_dropShadow"/>
<feColorMatrix in="SourceAlpha" type="matrix" values="0 0 0 0 0 0 0 0 0 0 0 0 0 0 0 0 0 0 127 0"/>
<feOffset dx="-8" dy="-8"/>
<feGaussianBlur stdDeviation="10"/>
<feColorMatrix type="matrix" values="0 0 0 0 1 0 0 0 0 1 0 0 0 0 1 0 0 0 0.6 0"/>
<feBlend mode="normal" in2="effect1_dropShadow" result="effect2_dropShadow"/>
<feBlend mode="normal" in="SourceGraphic" in2="effect2_dropShadow" result="shape"/>
<feColorMatrix in="SourceAlpha" type="matrix" values="0 0 0 0 0 0 0 0 0 0 0 0 0 0 0 0 0 0 127 0" result="hardAlpha"/>
<feOffset dx="-4" dy="-3"/>
<feGaussianBlur stdDeviation="20"/>
<feComposite in2="hardAlpha" operator="arithmetic" k2="-1" k3="1"/>
<feColorMatrix type="matrix" values="0 0 0 0 1 0 0 0 0 1 0 0 0 0 1 0 0 0 0.09 0"/>
<feBlend mode="normal" in2="shape" result="effect3_innerShadow"/>
</filter>
</defs>
</svg>
