<svg width="129" height="125" viewBox="0 0 129 125" fill="none" xmlns="http://www.w3.org/2000/svg">
<g filter="url(#filter0_ddi)">
<rect x="28" y="30" width="61" height="61" rx="20" fill="#E4F8FA"/>
<rect x="28.25" y="30.25" width="60.5" height="60.5" rx="19.75" stroke="url(#paint0_linear)" stroke-width="0.5"/>
</g>
<path d="M61.4498 70.7501C60.8426 70.395 60.6402 69.6159 60.9953 69.0087L65.9847 60.4926C66.3399 59.8854 67.119 59.681 67.7281 60.0381C68.3353 60.3933 68.5377 61.1723 68.1825 61.7795L63.1931 70.2957C62.8361 70.9048 62.0532 71.1034 61.4498 70.7501Z" fill="#8CE1EB"/>
<path d="M56.6838 55.0124H54.7743C53.5465 55.0124 52.546 54.0137 52.546 52.7841V46.7387C52.5479 44.9839 53.9742 43.5557 55.729 43.5557C57.4838 43.5557 58.9121 44.9839 58.9121 46.7387V52.786C58.9121 54.0137 57.9115 55.0124 56.6838 55.0124Z" fill="#4FD2D5"/>
<path d="M55.729 57.5576C55.0264 57.5576 54.4554 56.9866 54.4554 56.284V54.0575C54.4554 53.3549 55.0244 52.7839 55.729 52.7839C56.4336 52.7839 57.0026 53.3549 57.0026 54.0575V56.2859C57.0026 56.9886 56.4336 57.5576 55.729 57.5576Z" fill="#4FD2D5"/>
<path d="M69.0628 71.5616H67.8961L67.7586 71.216C67.224 69.8794 65.9465 69.0144 64.5087 69.0144H50.7721C49.3324 69.0144 48.0549 69.8775 47.5222 71.216L47.3847 71.5616H46.218C45.5154 71.5616 44.9444 72.1325 44.9444 72.8352C44.9444 73.5379 45.5116 74.1069 46.2142 74.1069H69.0628C69.7654 74.1069 70.3364 73.536 70.3364 72.8333C70.3364 72.1306 69.7673 71.5616 69.0628 71.5616Z" fill="#4FD2D5"/>
<path d="M66.2979 59.2363L64.3636 52.7957C64.1631 52.1217 64.5431 51.4133 65.2171 51.2109C65.8988 51.0047 66.6015 51.3904 66.8039 52.0644L68.7381 58.505C68.9386 59.179 68.5587 59.8874 67.8846 60.0898C67.1953 60.2942 66.4964 59.897 66.2979 59.2363Z" fill="#8CE1EB"/>
<path d="M63.722 52.0793L57.9421 50.5136C57.2642 50.3303 56.8632 49.6295 57.0465 48.9517C57.2298 48.2738 57.9287 47.8728 58.6085 48.0561L64.3884 49.6219C65.0662 49.8052 65.4672 50.5059 65.2839 51.1838C65.1025 51.8502 64.4151 52.2626 63.722 52.0793Z" fill="#8CE1EB"/>
<path d="M67.8235 62.6502C69.2293 62.6502 70.3688 61.5106 70.3688 60.1049C70.3688 58.6991 69.2293 57.5596 67.8235 57.5596C66.4178 57.5596 65.2782 58.6991 65.2782 60.1049C65.2782 61.5106 66.4178 62.6502 67.8235 62.6502Z" fill="#4FD2D5"/>
<path d="M65.2763 53.7388C66.682 53.7388 67.8216 52.5992 67.8216 51.1935C67.8216 49.7878 66.682 48.6482 65.2763 48.6482C63.8706 48.6482 62.731 49.7878 62.731 51.1935C62.731 52.5992 63.8706 53.7388 65.2763 53.7388Z" fill="#4FD2D5"/>
<path d="M64.6404 66.4691H52.5479C51.8452 66.4691 51.2743 65.8982 51.2743 65.1955C51.2743 64.4928 51.8433 63.9219 52.5479 63.9219H64.6404C65.3431 63.9219 65.914 64.4928 65.914 65.1955C65.914 65.8982 65.3431 66.4691 64.6404 66.4691Z" fill="#8CE1EB"/>
<defs>
<filter id="filter0_ddi" x="0" y="0" width="129" height="125" filterUnits="userSpaceOnUse" color-interpolation-filters="sRGB">
<feFlood flood-opacity="0" result="BackgroundImageFix"/>
<feColorMatrix in="SourceAlpha" type="matrix" values="0 0 0 0 0 0 0 0 0 0 0 0 0 0 0 0 0 0 127 0"/>
<feOffset dx="8" dy="2"/>
<feGaussianBlur stdDeviation="16"/>
<feColorMatrix type="matrix" values="0 0 0 0 0.0705882 0 0 0 0 0.239216 0 0 0 0 0.396078 0 0 0 0.15 0"/>
<feBlend mode="normal" in2="BackgroundImageFix" result="effect1_dropShadow"/>
<feColorMatrix in="SourceAlpha" type="matrix" values="0 0 0 0 0 0 0 0 0 0 0 0 0 0 0 0 0 0 127 0"/>
<feOffset dx="-8" dy="-8"/>
<feGaussianBlur stdDeviation="10"/>
<feColorMatrix type="matrix" values="0 0 0 0 1 0 0 0 0 1 0 0 0 0 1 0 0 0 0.6 0"/>
<feBlend mode="normal" in2="effect1_dropShadow" result="effect2_dropShadow"/>
<feBlend mode="normal" in="SourceGraphic" in2="effect2_dropShadow" result="shape"/>
<feColorMatrix in="SourceAlpha" type="matrix" values="0 0 0 0 0 0 0 0 0 0 0 0 0 0 0 0 0 0 127 0" result="hardAlpha"/>
<feOffset dx="-4" dy="-3"/>
<feGaussianBlur stdDeviation="20"/>
<feComposite in2="hardAlpha" operator="arithmetic" k2="-1" k3="1"/>
<feColorMatrix type="matrix" values="0 0 0 0 1 0 0 0 0 1 0 0 0 0 1 0 0 0 0.09 0"/>
<feBlend mode="normal" in2="shape" result="effect3_innerShadow"/>
</filter>
<linearGradient id="paint0_linear" x1="-2.5" y1="60.5" x2="58.5" y2="121.5" gradientUnits="userSpaceOnUse">
<stop stop-color="white"/>
<stop offset="0.616591" stop-color="white"/>
<stop offset="1" stop-color="#CBD7E5"/>
</linearGradient>
</defs>
</svg>
