<svg width="315" height="96" viewBox="0 0 315 96" fill="none" xmlns="http://www.w3.org/2000/svg">
<path d="M39.5999 1.60001L14.2999 37.9H14.0999V1.60001H1.59995V77H14.0999V42.1H14.2999L45.7999 87.6H58.0999L24.8999 40.3L51.1999 1.60001H39.5999Z" fill="#00A4A3"/>
<path d="M61.2999 89.3H44.8999L15.6999 47V78.7H-6.10352e-05V0H15.6999V33L38.6999 0H54.2999L26.8999 40.3L61.2999 89.3ZM46.5999 86H54.8999L22.8999 40.3L48.1999 3.3H40.4999L15.1999 39.5H12.3999V3.3H3.29994V75.4H12.3999V40.5H15.1999L46.5999 86Z" fill="#00A4A3"/>
<path d="M302.9 29.4V38.3H304.7V34.6H305.4C305.9 34.6 306.4 34.9 306.5 35.4L307.6 38.2H309.6L308.2 34.8C308.1 34.4 307.7 34 307.3 33.9C308.3 33.7 309 32.9 309 31.8C309 30.6 308.4 29.4 306 29.4H302.9ZM304.6 30.8H305.6C307 30.8 307.1 31.7 307.1 32C307.1 32.5 306.7 33.2 305.6 33.2H304.6V30.8Z" fill="#00A4A3"/>
<path d="M298.8 33.7C298.8 29.9 301.9 26.9 305.6 26.9C309.4 26.9 312.4 30 312.4 33.7C312.4 37.5 309.3 40.5 305.6 40.5C301.9 40.5 298.8 37.5 298.8 33.7ZM296.9 33.7C296.9 38.5 300.8 42.4 305.6 42.4C310.4 42.4 314.3 38.5 314.3 33.7C314.3 28.9 310.4 25 305.6 25C300.8 25 296.9 28.9 296.9 33.7Z" fill="#00A4A3"/>
<path d="M79.0999 43.5C76.3999 42.3 73.3999 41.7 70.4999 41.8C61.8999 41.8 56.4999 48.1 56.4999 57.3C56.4999 68 63.2999 72.7 70.9999 72.7C73.7999 72.7 76.5999 72.2 79.1999 71.1L79.5999 75C76.7999 76 73.8999 76.5 70.9999 76.4C58.8999 76.4 51.6999 68.6 51.6999 57.3C51.6999 47.5 57.6999 38.1 70.3999 38.1C73.3999 38.1 76.3999 38.6 79.2999 39.6L79.0999 43.5Z" fill="#00A4A3"/>
<path d="M70.8999 78C64.5999 78 59.2999 76 55.4999 72.2C51.6999 68.4 49.9999 63.3 49.9999 57.2C49.8999 52 51.6999 46.9 54.9999 42.8C58.6999 38.5 63.9999 36.3 70.3999 36.3C73.5999 36.3 76.7999 36.8 79.7999 37.8L80.9999 38.2L80.5999 46L78.3999 45C75.8999 43.9 73.0999 43.4 70.3999 43.4C62.8999 43.4 58.0999 48.8 58.0999 57.2C58.0999 65.8 62.8999 71 70.9999 71C73.5999 71 76.1999 70.5 78.5999 69.5L80.5999 68.7L81.3999 76L80.1999 76.5C77.1999 77.6 74.0999 78.1 70.8999 78ZM70.3999 39.6C58.5999 39.6 53.2999 48.4 53.2999 57.2C53.2999 68 60.0999 74.7 70.8999 74.7C73.1999 74.8 75.4999 74.4 77.6999 73.8L77.5999 73.3C75.3999 74 73.0999 74.3 70.7999 74.3C66.6999 74.4 62.5999 73 59.4999 70.2C56.2999 67.2 54.5999 62.7 54.5999 57.3C54.5999 47.1 60.8999 40.2 70.1999 40.2C72.5999 40.2 74.9999 40.5 77.2999 41.3V40.8C75.1999 40 72.7999 39.6 70.3999 39.6Z" fill="#00A4A3"/>
<path d="M105.1 57C98.2999 57 90.2999 58.2 90.2999 65.6C90.2999 69.6 93.3999 72.6 97.5999 72.6C104.7 72.6 109.2 67.8 109.2 59.7V57H105.1ZM89.5999 40.3C93.0999 38.7 96.8999 37.9 100.7 38C112.7 38 113.8 46.8 113.8 51.8V67.6L114 75.8H110V69.5H109.9C106.8 75.2 101.8 76.4 97.7999 76.4C89.6999 76.4 85.5999 71.6 85.5999 65.9C85.5999 53.7 99.3999 53.1 106.9 53.1H109.3V51.8C109.3 49.2 109.2 41.9 100.7 41.9C96.7999 41.9 92.9999 42.9 89.5999 44.7V40.3Z" fill="#00A4A3"/>
<path d="M97.6999 78C88.0999 78 83.8999 71.9 83.8999 65.8C83.8999 59.7 86.9999 55.6 92.7999 53.3C97.1999 51.6 102.4 51.4 106.9 51.4H107.6C107.6 47.4 106.6 43.5 100.7 43.5C97.0999 43.5 93.5999 44.4 90.3999 46.1L87.9999 47.4V39.2L88.9999 38.8C92.6999 37.2 96.6999 36.3 100.8 36.3C106.7 36.3 110.9 38.3 113.3 42.1C114.9 44.6 115.6 47.7 115.6 51.8V67.6L115.9 77.4H108.5V74.1C105.4 76.8 101.6 78.2 97.6999 78ZM106.8 54.7C97.5999 54.7 87.0999 56 87.0999 65.8C87.0999 70.1 89.8999 74.7 97.5999 74.7C102.1 74.7 105.4 73.1 107.6 69.7L107.2 70.2C104.7 72.8 101.2 74.3 97.4999 74.1C92.3999 74.1 88.4999 70.4 88.4999 65.5C88.3999 61.7 90.6999 58.2 94.2999 56.9C96.8999 55.8 100.3 55.2 104.9 55.2H110.7V59.5C110.8 62.4 110.2 65.2 108.9 67.8H111.5V74.1H112.2L112 67.6V51.9C112 46.7 110.8 39.7 100.5 39.7C97.2999 39.7 94.0999 40.3 91.0999 41.5V42.1C94.0999 40.9 97.2999 40.2 100.5 40.2C105.9 40.2 108.3 42.9 109.4 45.1C110.3 47.2 110.8 49.5 110.7 51.8V54.8L106.8 54.7ZM105.1 58.6C93.3999 58.6 91.8999 62.3 91.8999 65.6C91.8999 68.7 94.2999 70.9 97.5999 70.9C103.9 70.9 107.5 66.8 107.5 59.6V58.6H105.1Z" fill="#00A4A3"/>
<path d="M153.4 38.6V75.8H148.8V42.4H133.4V49.3C133.4 63.4 134.3 76.3 124.6 76.3C123.2 76.3 121.8 76.2 120.5 75.9V72.2C121 72.4 121.6 72.5 122.1 72.5C130 72.5 128.8 61.9 128.8 48.8V38.6H153.4Z" fill="#00A4A3"/>
<path d="M124.7 78C123.2 78 121.6 77.9 120.1 77.5L118.9 77.2V70.1L121 70.7C121.4 70.8 121.8 70.9 122.1 70.9C123.2 71 124.2 70.6 125 69.9C127.4 67.5 127.3 61 127.2 53.4C127.2 51.9 127.2 50.4 127.2 48.9V37H155V77.5H147.1V44.1H135V49.3C135 50.5 135 51.6 135 52.7C135.1 62.7 135.1 71.3 130.9 75.5C129.3 77.2 127 78.1 124.7 78ZM122.2 74.6C123 74.7 123.9 74.7 124.7 74.7C126.2 74.8 127.6 74.2 128.7 73.2C131.9 70 131.8 61.6 131.8 52.7C131.8 51.6 131.8 50.4 131.8 49.2V40.7H150.5V74.1H151.8V40.2H130.6V48.8C130.6 50.3 130.6 51.8 130.6 53.3C130.7 62 130.8 68.8 127.4 72.2C126 73.6 124.1 74.3 122.2 74.2V74.6Z" fill="#00A4A3"/>
<path d="M179.6 57C172.8 57 164.8 58.2 164.8 65.6C164.8 69.6 167.9 72.6 172.1 72.6C179.2 72.6 183.7 67.8 183.7 59.7V57H179.6ZM164.1 40.3C167.6 38.7 171.4 37.9 175.2 38C187.2 38 188.3 46.8 188.3 51.8V67.6L188.5 75.7H184.4V69.4H184.3C181.2 75.1 176.2 76.3 172.2 76.3C164.1 76.3 160 71.5 160 65.8C160 53.6 173.8 53 181.3 53H183.7V51.7C183.7 49.1 183.6 41.8 175.1 41.8C171.2 41.8 167.4 42.8 164 44.6L164.1 40.3Z" fill="#00A4A3"/>
<path d="M172.2 78C162.6 78 158.4 71.9 158.4 65.8C158.4 59.7 161.5 55.5 167.3 53.3C171.7 51.6 176.9 51.4 181.4 51.4H182.1C182.1 47.4 181.1 43.5 175.2 43.5C171.6 43.5 168.1 44.4 164.9 46.1L162.5 47.4V39.2L163.5 38.8C167.2 37.2 171.2 36.3 175.3 36.3C181.2 36.3 185.4 38.3 187.8 42.1C189.4 44.6 190.1 47.7 190.1 51.8V67.6L190.4 77.4H183V74.1C180 76.8 176.1 78.2 172.2 78ZM181.4 54.7C172.2 54.7 161.7 56 161.7 65.8C161.7 70.1 164.5 74.7 172.2 74.7C176.7 74.7 180 73.1 182.2 69.7L181.8 70.2C179.3 72.9 175.8 74.3 172.1 74.1C167.4 74.3 163.3 70.7 163.1 65.9C163.1 65.8 163.1 65.6 163.1 65.5C163 61.7 165.4 58.2 169 56.9C171.6 55.8 175 55.2 179.6 55.2H185.4V59.5C185.5 62.3 184.8 65.2 183.5 67.7H186.1V74H186.8L186.6 67.5V51.9C186.6 46.7 185.4 39.7 175.1 39.7C171.9 39.7 168.7 40.3 165.7 41.5V42.1C168.7 40.9 171.9 40.2 175.1 40.2C180.5 40.2 182.9 42.9 184 45.1C184.9 47.2 185.4 49.5 185.3 51.8V54.8L181.4 54.7ZM179.6 58.6C168 58.6 166.5 62.3 166.5 65.6C166.5 68.7 168.9 70.9 172.2 70.9C178.5 70.9 182.2 66.8 182.2 59.6V58.6H179.6Z" fill="#00A4A3"/>
<path d="M222.5 38.6V42.5H210.9V75.8H206.3V42.5H194.7V38.6H222.5Z" fill="#00A4A3"/>
<path d="M212.5 77.4H204.6V44.1H193V37H224.1V44.1H212.5V77.4ZM207.9 74.1H209.2V40.8H220.8V40.3H196.3V40.8H208L207.9 74.1Z" fill="#00A4A3"/>
<path d="M245.7 57C238.9 57 230.9 58.2 230.9 65.6C230.9 69.6 234 72.6 238.2 72.6C245.3 72.6 249.8 67.8 249.8 59.7V57H245.7ZM230.2 40.3C233.7 38.7 237.5 37.9 241.3 38C253.3 38 254.4 46.8 254.4 51.8V67.6L254.6 75.7H250.5V69.4H250.4C247.3 75.1 242.3 76.3 238.3 76.3C230.2 76.3 226.1 71.5 226.1 65.8C226.1 53.6 239.9 53 247.4 53H249.8V51.7C249.8 49.1 249.7 41.8 241.2 41.8C237.3 41.8 233.5 42.8 230.1 44.6L230.2 40.3Z" fill="#00A4A3"/>
<path d="M238.3 78C228.7 78 224.5 71.9 224.5 65.8C224.5 59.7 227.6 55.5 233.4 53.3C237.8 51.6 243 51.4 247.5 51.4H248.2C248.2 47.4 247.2 43.5 241.3 43.5C237.7 43.5 234.2 44.4 231 46.1L228.6 47.4V39.2L229.6 38.8C233.3 37.2 237.3 36.3 241.4 36.3C247.3 36.3 251.5 38.3 253.9 42.1C255.5 44.6 256.2 47.7 256.2 51.8V67.6L256.5 77.4H249V74.1C246 76.8 242.2 78.2 238.3 78ZM247.4 54.7C238.2 54.7 227.7 56 227.7 65.8C227.7 70.1 230.5 74.7 238.2 74.7C242.7 74.7 246 73.1 248.2 69.7L247.8 70.2C245.3 72.9 241.8 74.3 238.1 74.1C233.4 74.3 229.3 70.7 229.1 65.9C229.1 65.8 229.1 65.6 229.1 65.5C229 61.7 231.3 58.2 234.9 56.9C237.5 55.8 240.9 55.2 245.5 55.2H251.3V59.5C251.4 62.3 250.7 65.2 249.4 67.7H252V74H252.7L252.5 67.5V51.9C252.5 46.7 251.3 39.7 241 39.7C237.8 39.7 234.6 40.3 231.6 41.5V42.1C234.6 40.9 237.8 40.2 241 40.2C246.4 40.2 248.8 42.9 249.9 45.1C250.8 47.2 251.3 49.5 251.2 51.8V54.8L247.4 54.7ZM245.7 58.6C234.1 58.6 232.6 62.3 232.6 65.6C232.6 68.7 235 70.9 238.3 70.9C244.6 70.9 248.3 66.8 248.3 59.6V58.6H245.7Z" fill="#00A4A3"/>
<path d="M266.5 38.6V54.6H286.6V38.6H291.2V75.8H286.6V58.4H266.5V75.8H261.9V38.6H266.5Z" fill="#00A4A3"/>
<path d="M292.8 77.4H285V60H268.1V77.4H260.2V37H268.1V53H285V37H292.9L292.8 77.4ZM288.2 74.1H289.5V40.2H288.2V56.2H264.7V40.2H263.4V74.1H264.7V56.8H288.2V74.1Z" fill="#00A4A3"/>
<path d="M167.189 84.5744C165.412 84.5744 164.828 85.5845 164.828 86.7406V89.418C164.828 90.5742 165.412 91.5843 167.189 91.5843C168.929 91.5843 169.537 90.5742 169.537 89.418V86.7406C169.537 85.5845 168.929 84.5744 167.189 84.5744ZM167.189 85.7549C167.675 85.7549 167.98 85.9253 167.98 86.5459V89.6128C167.98 90.2334 167.675 90.4038 167.189 90.4038C166.726 90.4038 166.385 90.2091 166.385 89.6128V86.5459C166.385 85.9374 166.726 85.7549 167.189 85.7549ZM172.927 85.8036C173.317 85.8036 173.646 86.0591 173.646 86.5824V89.6249C173.646 90.1482 173.317 90.4038 172.927 90.4038C172.55 90.4038 172.185 90.1482 172.185 89.6006V86.6068C172.185 86.0591 172.55 85.8036 172.927 85.8036ZM170.688 84.7448V93.6045H172.185V90.6837C172.441 91.2801 172.891 91.5843 173.463 91.5843C174.376 91.5843 175.203 90.988 175.203 89.7101V86.4364C175.203 85.0977 174.376 84.5744 173.463 84.5744C172.94 84.5744 172.416 84.8786 172.185 85.4871V84.7448H170.688ZM176.357 84.7448V91.3896H177.818L179.412 87.4708V91.3896H180.872V84.7448H179.424L177.818 88.7122V84.7448H176.357Z" fill="#58595B"/>
<path d="M181.588 84.7448V91.3896H183.085V85.9253H185.483V84.7448H181.588ZM186.271 84.7448V91.3896H187.731L189.326 87.4708V91.3896H190.786V84.7448H189.338L187.731 88.7122V84.7448H186.271Z" fill="#58595B"/>
<path d="M193.135 84.7448H191.638V91.3896H193.135V88.4566H194.571V91.3896H196.068V84.7448H194.571V87.2761H193.135V84.7448ZM200.302 87.9576V89.5763C200.302 90.1726 199.925 90.4525 199.462 90.4525C198.988 90.4525 198.805 90.0387 198.805 89.5397C198.805 89.2355 198.939 88.8339 199.316 88.5905L200.302 87.9576ZM198.805 86.7893V86.6555C198.805 86.0591 199.158 85.8036 199.584 85.8036C200.046 85.8036 200.302 85.9861 200.302 86.3877C200.302 86.9475 199.645 87.2396 198.914 87.5439C197.758 88.0307 197.223 88.5905 197.223 89.7466C197.223 91.0001 197.941 91.5843 198.927 91.5843C199.73 91.5843 200.083 91.2679 200.375 90.7567C200.375 90.9271 200.399 91.2435 200.497 91.3896H202.067C201.896 91.1584 201.872 90.8663 201.872 90.416V86.2782C201.872 85.0734 200.862 84.5744 199.572 84.5744C198.269 84.5744 197.345 85.4019 197.345 86.4607V86.7893H198.805Z" fill="#58595B"/>
<path d="M203.296 84.7448V87.2761C203.296 90.0996 203.235 90.3308 202.675 90.3308C202.578 90.3308 202.481 90.3186 202.347 90.2943V91.3896C202.651 91.4748 202.882 91.5113 203.211 91.5113C204.099 91.5113 204.756 90.9393 204.756 88.5905V85.9253H205.986V91.3896H207.483V84.7448H203.296Z" fill="#58595B"/>
<path d="M210.015 88.4566H210.502C211.001 88.4566 211.427 88.6635 211.427 89.3207C211.427 90.0631 210.989 90.2091 210.502 90.2091H210.015V88.4566ZM210.015 84.7448H208.518V91.3896H210.977C211.926 91.3896 212.985 90.7202 212.985 89.3207C212.985 87.9333 211.95 87.2761 210.977 87.2761H210.015V84.7448ZM215.637 84.7448H214.14V91.3896H215.637V88.4566H217.073V91.3896H218.57V84.7448H217.073V87.2761H215.637V84.7448ZM221.282 88.4566H221.769C222.268 88.4566 222.694 88.6635 222.694 89.3207C222.694 90.0631 222.256 90.2091 221.769 90.2091H221.282V88.4566ZM221.282 84.7448H219.785V91.3896H222.244C223.193 91.3896 224.252 90.7202 224.252 89.3207C224.252 87.9333 223.217 87.2761 222.244 87.2761H221.282V84.7448ZM226.71 84.7448H225.213V91.3896H226.71V84.7448Z" fill="#58595B"/>
<path d="M227.419 84.7448V91.3896H228.879L230.473 87.4708V91.3896H231.934V84.7448H230.485L228.879 88.7122V84.7448H227.419ZM228.112 82.6028C228.112 83.4061 228.575 84.0998 229.682 84.0998C230.777 84.0998 231.276 83.5764 231.276 82.6028H230.473C230.473 83.1505 230.132 83.2235 229.658 83.2235C229.22 83.2235 228.879 83.1748 228.879 82.6028H228.112Z" fill="#58595B"/>
<path d="M236.44 84.7448V87.2761C236.44 90.0996 236.379 90.3308 235.819 90.3308C235.722 90.3308 235.624 90.3186 235.49 90.2943V91.3896C235.795 91.4748 236.026 91.5113 236.355 91.5113C237.243 91.5113 237.9 90.9393 237.9 88.5905V85.9253H239.129V91.3896H240.626V84.7448H236.44ZM244.865 87.9576V89.5763C244.865 90.1726 244.487 90.4525 244.025 90.4525C243.55 90.4525 243.368 90.0387 243.368 89.5397C243.368 89.2355 243.501 88.8339 243.879 88.5905L244.865 87.9576ZM243.368 86.7893V86.6555C243.368 86.0591 243.721 85.8036 244.146 85.8036C244.609 85.8036 244.865 85.9861 244.865 86.3877C244.865 86.9475 244.207 87.2396 243.477 87.5439C242.321 88.0307 241.786 88.5905 241.786 89.7466C241.786 91.0001 242.504 91.5843 243.489 91.5843C244.293 91.5843 244.645 91.2679 244.938 90.7567C244.938 90.9271 244.962 91.2435 245.059 91.3896H246.629C246.459 91.1584 246.434 90.8663 246.434 90.416V86.2782C246.434 85.0734 245.424 84.5744 244.134 84.5744C242.832 84.5744 241.907 85.4019 241.907 86.4607V86.7893H243.368Z" fill="#58595B"/>
<path d="M246.652 84.7448V85.9253H248.185V91.3896H249.682V85.9253H251.215V84.7448H246.652Z" fill="#58595B"/>
<path d="M254.816 87.9576V89.5763C254.816 90.1726 254.439 90.4525 253.977 90.4525C253.502 90.4525 253.32 90.0387 253.32 89.5397C253.32 89.2355 253.453 88.8339 253.831 88.5905L254.816 87.9576ZM253.32 86.7893V86.6555C253.32 86.0591 253.673 85.8036 254.098 85.8036C254.561 85.8036 254.816 85.9861 254.816 86.3877C254.816 86.9475 254.159 87.2396 253.429 87.5439C252.273 88.0307 251.737 88.5905 251.737 89.7466C251.737 91.0001 252.456 91.5843 253.441 91.5843C254.245 91.5843 254.597 91.2679 254.89 90.7567C254.89 90.9271 254.914 91.2435 255.011 91.3896H256.581C256.411 91.1584 256.386 90.8663 256.386 90.416V86.2782C256.386 85.0734 255.376 84.5744 254.086 84.5744C252.784 84.5744 251.859 85.4019 251.859 86.4607V86.7893H253.32ZM259.095 84.7448H257.598V91.3896H259.095V88.4566H260.531V91.3896H262.028V84.7448H260.531V87.2761H259.095V84.7448ZM265.543 84.5744C263.767 84.5744 263.183 85.5845 263.183 86.7406V89.418C263.183 90.5742 263.767 91.5843 265.543 91.5843C267.284 91.5843 267.892 90.5742 267.892 89.418V86.7406C267.892 85.5845 267.284 84.5744 265.543 84.5744ZM265.543 85.7549C266.03 85.7549 266.335 85.9253 266.335 86.5459V89.6128C266.335 90.2334 266.03 90.4038 265.543 90.4038C265.081 90.4038 264.74 90.2091 264.74 89.6128V86.5459C264.74 85.9374 265.081 85.7549 265.543 85.7549ZM269.043 84.7448V91.3896H270.54V85.9253H271.976V91.3896H273.473V84.7448H269.043ZM276.928 85.8036C277.317 85.8036 277.646 86.0591 277.646 86.5824V89.6249C277.646 90.1482 277.317 90.4038 276.928 90.4038C276.55 90.4038 276.185 90.1482 276.185 89.6006V86.6068C276.185 86.0591 276.55 85.8036 276.928 85.8036ZM274.688 84.7448V93.6045H276.185V90.6837C276.441 91.2801 276.891 91.5843 277.463 91.5843C278.376 91.5843 279.203 90.988 279.203 89.7101V86.4364C279.203 85.0977 278.376 84.5744 277.463 84.5744C276.94 84.5744 276.417 84.8786 276.185 85.4871V84.7448H274.688ZM282.658 84.5744C280.881 84.5744 280.297 85.5845 280.297 86.7406V89.418C280.297 90.5742 280.881 91.5843 282.658 91.5843C284.398 91.5843 285.006 90.5742 285.006 89.418V86.7406C285.006 85.5845 284.398 84.5744 282.658 84.5744ZM282.658 85.7549C283.144 85.7549 283.449 85.9253 283.449 86.5459V89.6128C283.449 90.2334 283.144 90.4038 282.658 90.4038C282.195 90.4038 281.854 90.2091 281.854 89.6128V86.5459C281.854 85.9374 282.195 85.7549 282.658 85.7549Z" fill="#58595B"/>
<path d="M289.369 87.1544V86.3269C289.369 85.1464 288.262 84.5744 287.288 84.5744C285.986 84.5744 285.098 85.3289 285.098 86.4486V89.7101C285.098 90.8298 285.986 91.5843 287.288 91.5843C288.262 91.5843 289.369 91.0123 289.369 89.8318V88.8217H287.872V89.7588C287.872 90.1604 287.605 90.3551 287.288 90.3551C286.923 90.3551 286.655 90.1482 286.655 89.6736V86.4851C286.655 86.0104 286.923 85.8036 287.288 85.8036C287.605 85.8036 287.872 85.9983 287.872 86.3999V87.1544H289.369Z" fill="#58595B"/>
<path d="M289.812 84.7448V85.9253H291.345V91.3896H292.842V85.9253H294.375V84.7448H289.812Z" fill="#58595B"/>
</svg>
