<svg width="356" height="57" viewBox="0 0 356 57" fill="none" xmlns="http://www.w3.org/2000/svg">
<path d="M3.5 44V8H10.3V24.6L24 8H32.3L17.25 25.75L33.25 44H24.65L10.3 27.6V44H3.5ZM50.2 44.75C46.6 44.75 43.4917 43.9667 40.875 42.4C38.275 40.8333 36.2667 38.6417 34.85 35.825C33.45 33.0083 32.75 29.7333 32.75 26C32.75 22.2667 33.45 18.9917 34.85 16.175C36.2667 13.3583 38.275 11.1667 40.875 9.6C43.4917 8.03333 46.6 7.25 50.2 7.25C54.3333 7.25 57.8 8.275 60.6 10.325C63.4167 12.375 65.4 15.15 66.55 18.65L59.7 20.55C59.0333 18.3667 57.9083 16.675 56.325 15.475C54.7417 14.2583 52.7 13.65 50.2 13.65C47.9167 13.65 46.0083 14.1583 44.475 15.175C42.9583 16.1917 41.8167 17.625 41.05 19.475C40.2833 21.325 39.9 23.5 39.9 26C39.9 28.5 40.2833 30.675 41.05 32.525C41.8167 34.375 42.9583 35.8083 44.475 36.825C46.0083 37.8417 47.9167 38.35 50.2 38.35C52.7 38.35 54.7417 37.7417 56.325 36.525C57.9083 35.3083 59.0333 33.6167 59.7 31.45L66.55 33.35C65.4 36.85 63.4167 39.625 60.6 41.675C57.8 43.725 54.3333 44.75 50.2 44.75ZM68.5781 44L79.5781 8H89.7281L100.728 44H93.7281L83.9281 12.25H85.2281L75.5781 44H68.5781ZM75.1781 36.5V30.15H94.1781V36.5H75.1781ZM104.223 44V38.35C104.989 38.4 105.639 38.3333 106.173 38.15C106.706 37.9667 107.156 37.6333 107.523 37.15C107.906 36.65 108.239 35.9667 108.523 35.1C108.806 34.2167 109.073 33.1167 109.323 31.8C109.723 29.7167 110.056 27.525 110.323 25.225C110.606 22.9083 110.839 20.6417 111.023 18.425C111.206 16.2083 111.348 14.1917 111.448 12.375C111.548 10.5417 111.623 9.08333 111.673 8H136.223V44H129.423V14.35H117.923C117.856 15.2833 117.764 16.5 117.648 18C117.548 19.5 117.406 21.1583 117.223 22.975C117.039 24.7917 116.814 26.675 116.548 28.625C116.281 30.575 115.956 32.4667 115.573 34.3C115.223 36.0833 114.798 37.6667 114.298 39.05C113.798 40.4167 113.131 41.5417 112.298 42.425C111.481 43.2917 110.423 43.8667 109.123 44.15C107.823 44.4333 106.189 44.3833 104.223 44ZM140.746 44L151.746 8H161.896L172.896 44H165.896L156.096 12.25H157.396L147.746 44H140.746ZM147.346 36.5V30.15H166.346V36.5H147.346ZM182.748 44V14.35H171.398V8H200.898V14.35H189.548V44H182.748ZM201.439 44L212.439 8H222.589L233.589 44H226.589L216.789 12.25H218.089L208.439 44H201.439ZM208.039 36.5V30.15H227.039V36.5H208.039ZM238.07 44V8H244.87V22.8H260.97V8H267.77V44H260.97V29.15H244.87V44H238.07ZM287.889 30.6C286.089 30.6 284.397 30.2583 282.814 29.575C281.231 28.8917 279.839 27.95 278.639 26.75C277.439 25.5333 276.497 24.1333 275.814 22.55C275.131 20.9667 274.789 19.2667 274.789 17.45C274.789 15.65 275.131 13.9583 275.814 12.375C276.497 10.7917 277.439 9.4 278.639 8.2C279.839 7 281.231 6.05833 282.814 5.375C284.397 4.69166 286.089 4.35 287.889 4.35C289.706 4.35 291.406 4.69166 292.989 5.375C294.572 6.05833 295.964 7 297.164 8.2C298.381 9.4 299.331 10.7917 300.014 12.375C300.697 13.9583 301.039 15.65 301.039 17.45C301.039 19.2667 300.697 20.9667 300.014 22.55C299.331 24.1333 298.381 25.5333 297.164 26.75C295.964 27.95 294.572 28.8917 292.989 29.575C291.406 30.2583 289.706 30.6 287.889 30.6ZM287.939 26.2C289.522 26.2 290.972 25.8 292.289 25C293.622 24.2 294.689 23.1417 295.489 21.825C296.289 20.4917 296.689 19.0333 296.689 17.45C296.689 15.8333 296.289 14.3667 295.489 13.05C294.689 11.7167 293.622 10.6583 292.289 9.875C290.972 9.09167 289.522 8.7 287.939 8.7C286.322 8.7 284.847 9.09167 283.514 9.875C282.197 10.6583 281.147 11.7167 280.364 13.05C279.581 14.3667 279.189 15.8333 279.189 17.45C279.189 19.0333 279.581 20.4917 280.364 21.825C281.147 23.1417 282.197 24.2 283.514 25C284.847 25.8 286.322 26.2 287.939 26.2ZM283.739 23.4V11.5H288.739C290.022 11.5 291.014 11.8583 291.714 12.575C292.414 13.2917 292.789 14.25 292.839 15.45C292.839 16.1667 292.672 16.8333 292.339 17.45C292.006 18.05 291.489 18.55 290.789 18.95L292.989 23.4H290.439L288.489 19.35H285.989V23.4H283.739ZM285.989 17.25H288.839C289.339 17.25 289.747 17.0833 290.064 16.75C290.381 16.4 290.539 15.9667 290.539 15.45C290.539 14.8667 290.397 14.425 290.114 14.125C289.847 13.8083 289.422 13.65 288.839 13.65H285.989V17.25ZM317.551 30.85V25.6H338.551V30.85H317.551Z" fill="#00A4A3"/>
</svg>
