<svg width="158" height="154" viewBox="0 0 158 154" fill="none" xmlns="http://www.w3.org/2000/svg">
<g filter="url(#filter0_ddi)">
<rect x="28" y="30" width="90" height="90" rx="20" fill="url(#paint0_linear)"/>
<rect x="28" y="30" width="90" height="90" rx="20" fill="#E3F8FA"/>
<rect x="28.25" y="30.25" width="89.5" height="89.5" rx="19.75" stroke="url(#paint1_linear)" stroke-width="0.5"/>
</g>
<path d="M90.1192 56H54.8682C51.6369 56 48.993 58.6438 48.993 61.8752V85.3758C48.993 88.6071 51.6369 91.2509 54.8682 91.2509H72.9431C72.6317 90.2904 72.4937 89.3121 72.4937 88.3134C72.4937 87.9814 72.5142 87.6465 72.5524 87.3352H54.8682C53.7901 87.3352 52.9088 86.4539 52.9088 85.3758V61.8752C52.9088 60.7971 53.7901 59.9158 54.8682 59.9158H90.1192C91.1973 59.9158 92.0785 60.7971 92.0785 61.8752V82.1445C93.3123 83.8864 94.0379 86.0221 94.0379 88.3134C94.0379 88.8216 93.9997 89.3503 93.8998 89.8615C95.1718 88.7834 95.9943 87.1765 95.9943 85.3758V61.8752C95.9943 58.6438 93.3505 56 90.1192 56Z" fill="#4FD2D4"/>
<path d="M80.3282 67.7504H58.7869C57.7059 67.7504 56.8276 66.875 56.8276 65.791C56.8276 64.71 57.7059 63.8317 58.7869 63.8317H80.3282C81.4092 63.8317 82.2876 64.7071 82.2876 65.791C82.2846 66.875 81.4092 67.7504 80.3282 67.7504Z" fill="#4FD2D4"/>
<path d="M88.1598 75.5849H58.784C57.703 75.5849 56.8246 74.7095 56.8246 73.6255C56.8246 72.5415 57.703 71.6661 58.784 71.6661H88.1598C89.2437 71.6661 90.1191 72.5445 90.1191 73.6255C90.1191 74.7065 89.2437 75.5849 88.1598 75.5849Z" fill="#4FD2D4"/>
<path d="M70.5343 83.4165H58.784C57.703 83.4165 56.8246 82.5411 56.8246 81.4572C56.8246 80.3732 57.703 79.5007 58.784 79.5007H70.5343C71.6153 79.5007 72.4937 80.3761 72.4937 81.4601C72.4937 82.5441 71.6153 83.4165 70.5343 83.4165Z" fill="#4FD2D4"/>
<path d="M90.1191 88.3135C90.1191 84.5357 87.0435 81.4601 83.2658 81.4601C79.488 81.4601 76.4095 84.5357 76.4095 88.3135C76.4095 89.5972 76.7855 90.7869 77.4024 91.815C77.4024 91.8385 77.3935 91.8621 77.3965 91.8856L78.3747 101.677C78.4981 102.913 80.0021 103.439 80.8746 102.57L83.2628 100.181L85.6511 102.57C86.5177 103.439 88.0276 102.916 88.151 101.677L89.1292 91.8856C89.1321 91.8621 89.1204 91.8385 89.1233 91.815C89.7431 90.7869 90.1191 89.5972 90.1191 88.3135Z" fill="#8CE1EB"/>
<defs>
<filter id="filter0_ddi" x="0" y="0" width="158" height="154" filterUnits="userSpaceOnUse" color-interpolation-filters="sRGB">
<feFlood flood-opacity="0" result="BackgroundImageFix"/>
<feColorMatrix in="SourceAlpha" type="matrix" values="0 0 0 0 0 0 0 0 0 0 0 0 0 0 0 0 0 0 127 0"/>
<feOffset dx="8" dy="2"/>
<feGaussianBlur stdDeviation="16"/>
<feColorMatrix type="matrix" values="0 0 0 0 0.0705882 0 0 0 0 0.239216 0 0 0 0 0.396078 0 0 0 0.15 0"/>
<feBlend mode="normal" in2="BackgroundImageFix" result="effect1_dropShadow"/>
<feColorMatrix in="SourceAlpha" type="matrix" values="0 0 0 0 0 0 0 0 0 0 0 0 0 0 0 0 0 0 127 0"/>
<feOffset dx="-8" dy="-8"/>
<feGaussianBlur stdDeviation="10"/>
<feColorMatrix type="matrix" values="0 0 0 0 1 0 0 0 0 1 0 0 0 0 1 0 0 0 0.6 0"/>
<feBlend mode="normal" in2="effect1_dropShadow" result="effect2_dropShadow"/>
<feBlend mode="normal" in="SourceGraphic" in2="effect2_dropShadow" result="shape"/>
<feColorMatrix in="SourceAlpha" type="matrix" values="0 0 0 0 0 0 0 0 0 0 0 0 0 0 0 0 0 0 127 0" result="hardAlpha"/>
<feOffset dx="-4" dy="-3"/>
<feGaussianBlur stdDeviation="20"/>
<feComposite in2="hardAlpha" operator="arithmetic" k2="-1" k3="1"/>
<feColorMatrix type="matrix" values="0 0 0 0 1 0 0 0 0 1 0 0 0 0 1 0 0 0 0.09 0"/>
<feBlend mode="normal" in2="shape" result="effect3_innerShadow"/>
</filter>
<linearGradient id="paint0_linear" x1="-17" y1="75" x2="73" y2="165" gradientUnits="userSpaceOnUse">
<stop stop-color="#E8F1F9"/>
<stop offset="1" stop-color="#EDF5FC"/>
</linearGradient>
<linearGradient id="paint1_linear" x1="-17" y1="75" x2="73" y2="165" gradientUnits="userSpaceOnUse">
<stop stop-color="white"/>
<stop offset="0.616591" stop-color="white"/>
<stop offset="1" stop-color="#CBD7E5"/>
</linearGradient>
</defs>
</svg>
