<svg width="87" height="87" viewBox="0 0 87 87" fill="none" xmlns="http://www.w3.org/2000/svg">
<path d="M75.1082 8.0475L72.2209 10.9348C64.3854 3.94762 54.2826 0 43.5 0C19.5152 0 0 19.5152 0 43.5C0 47.7521 0.625313 51.9771 1.85963 56.0661C2.28919 57.4961 3.79538 58.3172 5.24719 57.8876C6.68269 57.4526 7.49831 55.9356 7.06331 54.5001C5.98669 50.9168 5.4375 47.2192 5.4375 43.5C5.4375 22.5113 22.5113 5.4375 43.5 5.4375C52.8199 5.4375 61.5579 8.80875 68.382 14.7737L66.0493 17.1064C64.3365 18.8137 65.5436 21.75 67.9688 21.75H77.0331C78.5338 21.75 79.7518 20.532 79.7518 19.0312V9.96694C79.7518 7.569 76.8319 6.32925 75.1082 8.0475Z" fill="#79F4F5"/>
<path d="M85.1404 30.934C84.7054 29.4985 83.1992 28.6774 81.7528 29.1124C80.3173 29.5474 79.5017 31.0645 79.9367 32.5C81.0133 36.0833 81.5625 39.7808 81.5625 43.5C81.5625 64.4888 64.4888 81.5625 43.5 81.5625C34.1801 81.5625 25.4421 78.1913 18.618 72.2264L20.9507 69.8937C22.6635 68.1863 21.4564 65.25 19.0312 65.25H9.96693C8.46618 65.25 7.24818 66.468 7.24818 67.9688V77.0331C7.24818 79.4582 10.1899 80.6545 11.8918 78.958L14.7791 76.0707C22.6146 83.0524 32.7174 87 43.5 87C67.4848 87 87 67.4848 87 43.5C87 39.2479 86.3747 35.023 85.1404 30.934Z" fill="#79F4F5"/>
<path d="M45.0877 65.5898H43.2771C39.7807 65.5898 36.9315 62.746 36.9315 59.2443V51.088H28.7752C25.2735 51.0935 22.4297 48.2442 22.4297 44.7479V42.9372C22.4297 39.4355 25.2735 36.5917 28.7752 36.5917H36.9315V28.4354C36.9315 24.9391 39.7753 22.0898 43.2771 22.0898H45.0877C48.5841 22.0898 51.4333 24.9337 51.4333 28.4354V36.5917H59.5896C63.0859 36.5917 65.9297 39.4355 65.9297 42.9372V44.7479C65.9297 48.2442 63.0859 51.0935 59.5841 51.0935H51.4279V59.2497C51.4279 62.746 48.5841 65.5898 45.0877 65.5898Z" fill="#79F4F5"/>
</svg>
