<svg width="133" height="129" viewBox="0 0 133 129" fill="none" xmlns="http://www.w3.org/2000/svg">
<g filter="url(#filter0_ddi)">
<rect x="28" y="30" width="65" height="65" rx="20" fill="#E4F8FA"/>
<rect x="28.25" y="30.25" width="64.5" height="64.5" rx="19.75" stroke="url(#paint0_linear)" stroke-width="0.5"/>
</g>
<path d="M65.2413 58.753C66.4135 59.2382 67.3431 60.1807 67.8541 61.3422L70.4819 51.1316C70.791 49.94 70.5399 48.7013 69.7885 47.733C69.0435 46.7626 67.9099 46.2087 66.6819 46.2087H64.6488V58.5727C64.8485 58.6263 65.0481 58.6714 65.2413 58.753Z" fill="#4FD2D4"/>
<path d="M59.4147 58.8196L60.355 59.2468L61.3018 58.8174C61.6796 58.6457 62.0876 58.5383 62.5019 58.4653V46.2087H58.2081V58.4653C58.6246 58.5383 59.0325 58.6457 59.4147 58.8196Z" fill="#4FD2D4"/>
<path d="M52.858 61.3341C53.369 60.1769 54.2965 59.2365 55.473 58.7514C55.6619 58.6719 55.8637 58.6268 56.0612 58.571V46.2092H54.0281C52.8001 46.2092 51.6665 46.7631 50.9194 47.7314C50.1701 48.6996 49.9168 49.9384 50.226 51.1278L52.858 61.3341Z" fill="#4FD2D4"/>
<path d="M70.1233 72.3749L69.4127 70.8098C69.3354 70.6402 69.3354 70.4427 69.4127 70.2731L70.1233 68.708C70.4432 68.006 70.4561 67.1923 70.162 66.4796C69.8678 65.7668 69.2817 65.2022 68.5604 64.9316L66.9502 64.3284C66.7742 64.2618 66.6368 64.1244 66.5702 63.9484L65.9669 62.3404C65.6964 61.6169 65.1318 61.0329 64.419 60.7388C63.7041 60.4425 62.8926 60.4554 62.1927 60.7753L60.6276 61.4859C60.458 61.5632 60.2626 61.5632 60.0909 61.4859L58.5258 60.7753C57.8216 60.4532 57.008 60.4404 56.2973 60.7366C55.5846 61.0308 55.0199 61.6168 54.7494 62.3382L54.1462 63.9484C54.0796 64.1244 53.9422 64.2618 53.7662 64.3284L52.1581 64.9316C51.4346 65.2022 50.8507 65.7668 50.5566 66.4796C50.2603 67.1923 50.2753 68.0038 50.5931 68.7059L51.3037 70.271C51.381 70.4406 51.381 70.6381 51.3037 70.8077L50.5931 72.3728C50.2732 73.0748 50.2603 73.8885 50.5544 74.6012C50.8485 75.314 51.4346 75.8786 52.156 76.1491L53.7662 76.7524C53.9422 76.819 54.0796 76.9564 54.1462 77.1324L54.7494 78.7404C55.0199 79.4639 55.5846 80.0479 56.2973 80.342C56.6387 80.4837 57.0037 80.5546 57.3665 80.5546C57.7615 80.5546 58.1587 80.4708 58.5237 80.3055L60.0887 79.5949C60.2584 79.5176 60.4537 79.5176 60.6255 79.5949L62.1906 80.3055C62.8926 80.6254 63.7063 80.6383 64.419 80.3442C65.1318 80.05 65.6964 79.4639 65.9669 78.7426L66.5702 77.1324C66.6368 76.9564 66.7742 76.819 66.9502 76.7524L68.5582 76.1491C69.2817 75.8786 69.8657 75.314 70.1598 74.6012C70.4561 73.8885 70.441 73.0769 70.1233 72.3749ZM60.355 75.5502C57.5941 75.5502 55.3463 73.3024 55.3463 70.5415C55.3463 67.7806 57.5941 65.5306 60.355 65.5306C63.1159 65.5306 65.3637 67.7784 65.3637 70.5393C65.3637 73.3002 63.1159 75.5502 60.355 75.5502Z" fill="#8CE1EB"/>
<defs>
<filter id="filter0_ddi" x="0" y="0" width="133" height="129" filterUnits="userSpaceOnUse" color-interpolation-filters="sRGB">
<feFlood flood-opacity="0" result="BackgroundImageFix"/>
<feColorMatrix in="SourceAlpha" type="matrix" values="0 0 0 0 0 0 0 0 0 0 0 0 0 0 0 0 0 0 127 0"/>
<feOffset dx="8" dy="2"/>
<feGaussianBlur stdDeviation="16"/>
<feColorMatrix type="matrix" values="0 0 0 0 0.0705882 0 0 0 0 0.239216 0 0 0 0 0.396078 0 0 0 0.15 0"/>
<feBlend mode="normal" in2="BackgroundImageFix" result="effect1_dropShadow"/>
<feColorMatrix in="SourceAlpha" type="matrix" values="0 0 0 0 0 0 0 0 0 0 0 0 0 0 0 0 0 0 127 0"/>
<feOffset dx="-8" dy="-8"/>
<feGaussianBlur stdDeviation="10"/>
<feColorMatrix type="matrix" values="0 0 0 0 1 0 0 0 0 1 0 0 0 0 1 0 0 0 0.6 0"/>
<feBlend mode="normal" in2="effect1_dropShadow" result="effect2_dropShadow"/>
<feBlend mode="normal" in="SourceGraphic" in2="effect2_dropShadow" result="shape"/>
<feColorMatrix in="SourceAlpha" type="matrix" values="0 0 0 0 0 0 0 0 0 0 0 0 0 0 0 0 0 0 127 0" result="hardAlpha"/>
<feOffset dx="-4" dy="-3"/>
<feGaussianBlur stdDeviation="20"/>
<feComposite in2="hardAlpha" operator="arithmetic" k2="-1" k3="1"/>
<feColorMatrix type="matrix" values="0 0 0 0 1 0 0 0 0 1 0 0 0 0 1 0 0 0 0.09 0"/>
<feBlend mode="normal" in2="shape" result="effect3_innerShadow"/>
</filter>
<linearGradient id="paint0_linear" x1="-4.5" y1="62.5" x2="60.5" y2="127.5" gradientUnits="userSpaceOnUse">
<stop stop-color="white"/>
<stop offset="0.616591" stop-color="white"/>
<stop offset="1" stop-color="#CBD7E5"/>
</linearGradient>
</defs>
</svg>
